<mxfile host="app.diagrams.net" agent="Mozilla/5.0 (Windows NT 10.0; Win64; x64) AppleWebKit/537.36 (KHTML, like Gecko) Chrome/134.0.0.0 Safari/537.36" version="26.2.4">
  <diagram name="Page-1" id="HZVLxBxoAdX3d_R-Tj7m">
    <mxGraphModel dx="1685" dy="486" grid="1" gridSize="10" guides="1" tooltips="1" connect="1" arrows="1" fold="1" page="1" pageScale="1" pageWidth="850" pageHeight="1100" math="0" shadow="0">
      <root>
        <mxCell id="0" />
        <mxCell id="1" parent="0" />
        <mxCell id="6BShPlHI175B7QSoKlye-1" value="User" style="ellipse;whiteSpace=wrap;html=1;aspect=fixed;strokeWidth=3;" vertex="1" parent="1">
          <mxGeometry x="290" y="120" width="40" height="40" as="geometry" />
        </mxCell>
        <mxCell id="6BShPlHI175B7QSoKlye-2" value="" style="ellipse;whiteSpace=wrap;html=1;aspect=fixed;" vertex="1" parent="1">
          <mxGeometry x="185" y="50" width="30" height="30" as="geometry" />
        </mxCell>
        <mxCell id="6BShPlHI175B7QSoKlye-22" style="rounded=0;orthogonalLoop=1;jettySize=auto;html=1;exitX=0.5;exitY=1;exitDx=0;exitDy=0;endArrow=none;startFill=0;" edge="1" parent="1" source="6BShPlHI175B7QSoKlye-3">
          <mxGeometry relative="1" as="geometry">
            <mxPoint x="310" y="120" as="targetPoint" />
          </mxGeometry>
        </mxCell>
        <mxCell id="6BShPlHI175B7QSoKlye-3" value="" style="ellipse;whiteSpace=wrap;html=1;aspect=fixed;" vertex="1" parent="1">
          <mxGeometry x="270" y="50" width="30" height="30" as="geometry" />
        </mxCell>
        <mxCell id="6BShPlHI175B7QSoKlye-20" style="rounded=0;orthogonalLoop=1;jettySize=auto;html=1;exitX=0.5;exitY=1;exitDx=0;exitDy=0;entryX=0.5;entryY=0;entryDx=0;entryDy=0;endArrow=none;startFill=0;" edge="1" parent="1" source="6BShPlHI175B7QSoKlye-4" target="6BShPlHI175B7QSoKlye-1">
          <mxGeometry relative="1" as="geometry" />
        </mxCell>
        <mxCell id="6BShPlHI175B7QSoKlye-4" value="" style="ellipse;whiteSpace=wrap;html=1;aspect=fixed;" vertex="1" parent="1">
          <mxGeometry x="350" y="50" width="30" height="30" as="geometry" />
        </mxCell>
        <mxCell id="6BShPlHI175B7QSoKlye-21" style="rounded=0;orthogonalLoop=1;jettySize=auto;html=1;exitX=0.5;exitY=1;exitDx=0;exitDy=0;endArrow=none;endFill=1;startFill=0;" edge="1" parent="1" source="6BShPlHI175B7QSoKlye-5">
          <mxGeometry relative="1" as="geometry">
            <mxPoint x="310" y="120" as="targetPoint" />
          </mxGeometry>
        </mxCell>
        <mxCell id="6BShPlHI175B7QSoKlye-5" value="" style="ellipse;whiteSpace=wrap;html=1;aspect=fixed;" vertex="1" parent="1">
          <mxGeometry x="420" y="47" width="30" height="30" as="geometry" />
        </mxCell>
        <mxCell id="6BShPlHI175B7QSoKlye-10" value="Lastname" style="text;html=1;align=center;verticalAlign=middle;whiteSpace=wrap;rounded=0;" vertex="1" parent="1">
          <mxGeometry x="180" y="40" width="40" height="7" as="geometry" />
        </mxCell>
        <mxCell id="6BShPlHI175B7QSoKlye-12" value="Firstname" style="text;html=1;align=center;verticalAlign=middle;whiteSpace=wrap;rounded=0;" vertex="1" parent="1">
          <mxGeometry x="260" y="40" width="40" height="7" as="geometry" />
        </mxCell>
        <mxCell id="6BShPlHI175B7QSoKlye-13" value="Phone" style="text;html=1;align=center;verticalAlign=middle;whiteSpace=wrap;rounded=0;" vertex="1" parent="1">
          <mxGeometry x="345" y="40" width="40" height="7" as="geometry" />
        </mxCell>
        <mxCell id="6BShPlHI175B7QSoKlye-17" value="" style="endArrow=none;html=1;rounded=0;exitX=0.5;exitY=1;exitDx=0;exitDy=0;" edge="1" parent="1" source="6BShPlHI175B7QSoKlye-2">
          <mxGeometry width="50" height="50" relative="1" as="geometry">
            <mxPoint x="340" y="110" as="sourcePoint" />
            <mxPoint x="310" y="120" as="targetPoint" />
            <Array as="points">
              <mxPoint x="220" y="110" />
            </Array>
          </mxGeometry>
        </mxCell>
        <mxCell id="6BShPlHI175B7QSoKlye-65" style="edgeStyle=orthogonalEdgeStyle;rounded=0;orthogonalLoop=1;jettySize=auto;html=1;exitX=0.5;exitY=0;exitDx=0;exitDy=0;entryX=0.5;entryY=1;entryDx=0;entryDy=0;fillColor=#f8cecc;strokeColor=#b85450;" edge="1" parent="1" source="6BShPlHI175B7QSoKlye-23" target="6BShPlHI175B7QSoKlye-1">
          <mxGeometry relative="1" as="geometry" />
        </mxCell>
        <mxCell id="6BShPlHI175B7QSoKlye-23" value="" style="ellipse;whiteSpace=wrap;html=1;aspect=fixed;strokeWidth=3;" vertex="1" parent="1">
          <mxGeometry x="290" y="370" width="40" height="40" as="geometry" />
        </mxCell>
        <mxCell id="6BShPlHI175B7QSoKlye-24" value="Doctor" style="text;html=1;align=center;verticalAlign=middle;whiteSpace=wrap;rounded=0;" vertex="1" parent="1">
          <mxGeometry x="280" y="410" width="60" height="30" as="geometry" />
        </mxCell>
        <mxCell id="6BShPlHI175B7QSoKlye-48" style="edgeStyle=orthogonalEdgeStyle;rounded=0;orthogonalLoop=1;jettySize=auto;html=1;exitX=0;exitY=0.5;exitDx=0;exitDy=0;entryX=1;entryY=0.5;entryDx=0;entryDy=0;fillColor=#f8cecc;strokeColor=#b85450;" edge="1" parent="1" source="6BShPlHI175B7QSoKlye-27" target="6BShPlHI175B7QSoKlye-1">
          <mxGeometry relative="1" as="geometry">
            <Array as="points">
              <mxPoint x="510" y="242" />
              <mxPoint x="510" y="140" />
            </Array>
          </mxGeometry>
        </mxCell>
        <mxCell id="6BShPlHI175B7QSoKlye-27" value="Address" style="ellipse;whiteSpace=wrap;html=1;aspect=fixed;strokeWidth=3;" vertex="1" parent="1">
          <mxGeometry x="690" y="220" width="45" height="45" as="geometry" />
        </mxCell>
        <mxCell id="6BShPlHI175B7QSoKlye-39" style="edgeStyle=orthogonalEdgeStyle;rounded=0;orthogonalLoop=1;jettySize=auto;html=1;exitX=1;exitY=0.5;exitDx=0;exitDy=0;entryX=0.5;entryY=0;entryDx=0;entryDy=0;strokeColor=none;endArrow=none;startFill=0;" edge="1" parent="1" source="6BShPlHI175B7QSoKlye-28" target="6BShPlHI175B7QSoKlye-27">
          <mxGeometry relative="1" as="geometry" />
        </mxCell>
        <mxCell id="6BShPlHI175B7QSoKlye-40" style="edgeStyle=orthogonalEdgeStyle;rounded=0;orthogonalLoop=1;jettySize=auto;html=1;exitX=1;exitY=0.5;exitDx=0;exitDy=0;entryX=0.5;entryY=0;entryDx=0;entryDy=0;endArrow=none;startFill=0;" edge="1" parent="1" source="6BShPlHI175B7QSoKlye-28" target="6BShPlHI175B7QSoKlye-27">
          <mxGeometry relative="1" as="geometry" />
        </mxCell>
        <mxCell id="6BShPlHI175B7QSoKlye-28" value="street" style="ellipse;whiteSpace=wrap;html=1;aspect=fixed;shadow=0;" vertex="1" parent="1">
          <mxGeometry x="580" y="160" width="30" height="30" as="geometry" />
        </mxCell>
        <mxCell id="6BShPlHI175B7QSoKlye-41" style="edgeStyle=orthogonalEdgeStyle;rounded=0;orthogonalLoop=1;jettySize=auto;html=1;exitX=1;exitY=0.5;exitDx=0;exitDy=0;entryX=0.5;entryY=0;entryDx=0;entryDy=0;endArrow=none;startFill=0;" edge="1" parent="1" source="6BShPlHI175B7QSoKlye-29" target="6BShPlHI175B7QSoKlye-27">
          <mxGeometry relative="1" as="geometry" />
        </mxCell>
        <mxCell id="6BShPlHI175B7QSoKlye-29" value="building" style="ellipse;whiteSpace=wrap;html=1;aspect=fixed;shadow=0;" vertex="1" parent="1">
          <mxGeometry x="610" y="110" width="30" height="30" as="geometry" />
        </mxCell>
        <mxCell id="6BShPlHI175B7QSoKlye-44" style="edgeStyle=orthogonalEdgeStyle;rounded=0;orthogonalLoop=1;jettySize=auto;html=1;entryX=0.5;entryY=0;entryDx=0;entryDy=0;endArrow=none;startFill=0;" edge="1" parent="1" source="6BShPlHI175B7QSoKlye-30" target="6BShPlHI175B7QSoKlye-27">
          <mxGeometry relative="1" as="geometry" />
        </mxCell>
        <mxCell id="6BShPlHI175B7QSoKlye-30" value="appartements" style="ellipse;whiteSpace=wrap;html=1;aspect=fixed;shadow=0;" vertex="1" parent="1">
          <mxGeometry x="697.5" y="70" width="30" height="30" as="geometry" />
        </mxCell>
        <mxCell id="6BShPlHI175B7QSoKlye-43" style="edgeStyle=orthogonalEdgeStyle;rounded=0;orthogonalLoop=1;jettySize=auto;html=1;exitX=0;exitY=0.5;exitDx=0;exitDy=0;endArrow=none;startFill=0;" edge="1" parent="1" source="6BShPlHI175B7QSoKlye-31">
          <mxGeometry relative="1" as="geometry">
            <mxPoint x="710" y="220" as="targetPoint" />
            <Array as="points">
              <mxPoint x="710" y="125" />
            </Array>
          </mxGeometry>
        </mxCell>
        <mxCell id="6BShPlHI175B7QSoKlye-31" value="contry" style="ellipse;whiteSpace=wrap;html=1;aspect=fixed;shadow=0;" vertex="1" parent="1">
          <mxGeometry x="790" y="110" width="30" height="30" as="geometry" />
        </mxCell>
        <mxCell id="6BShPlHI175B7QSoKlye-42" style="edgeStyle=orthogonalEdgeStyle;rounded=0;orthogonalLoop=1;jettySize=auto;html=1;exitX=0;exitY=0.5;exitDx=0;exitDy=0;endArrow=none;startFill=0;" edge="1" parent="1" source="6BShPlHI175B7QSoKlye-33">
          <mxGeometry relative="1" as="geometry">
            <mxPoint x="710" y="220" as="targetPoint" />
          </mxGeometry>
        </mxCell>
        <mxCell id="6BShPlHI175B7QSoKlye-33" value="city" style="ellipse;whiteSpace=wrap;html=1;aspect=fixed;shadow=0;" vertex="1" parent="1">
          <mxGeometry x="820" y="170" width="30" height="30" as="geometry" />
        </mxCell>
        <mxCell id="6BShPlHI175B7QSoKlye-46" value="UserID" style="ellipse;whiteSpace=wrap;html=1;aspect=fixed;shadow=0;fillColor=#f8cecc;strokeColor=#b85450;" vertex="1" parent="1">
          <mxGeometry x="590" y="227.5" width="30" height="30" as="geometry" />
        </mxCell>
        <mxCell id="6BShPlHI175B7QSoKlye-49" style="edgeStyle=orthogonalEdgeStyle;rounded=0;orthogonalLoop=1;jettySize=auto;html=1;fillColor=#f8cecc;strokeColor=#b85450;" edge="1" parent="1">
          <mxGeometry relative="1" as="geometry">
            <mxPoint x="-220" y="47" as="sourcePoint" />
            <mxPoint x="-150" y="47" as="targetPoint" />
            <Array as="points">
              <mxPoint x="-150" y="47" />
            </Array>
          </mxGeometry>
        </mxCell>
        <mxCell id="6BShPlHI175B7QSoKlye-50" value="Відношення" style="text;html=1;align=center;verticalAlign=middle;whiteSpace=wrap;rounded=0;" vertex="1" parent="1">
          <mxGeometry x="-220" y="47" width="60" height="30" as="geometry" />
        </mxCell>
        <mxCell id="6BShPlHI175B7QSoKlye-51" value="" style="endArrow=none;html=1;rounded=0;exitX=1;exitY=0;exitDx=0;exitDy=0;entryX=0;entryY=0.5;entryDx=0;entryDy=0;" edge="1" parent="1" source="6BShPlHI175B7QSoKlye-23" target="6BShPlHI175B7QSoKlye-25">
          <mxGeometry width="50" height="50" relative="1" as="geometry">
            <mxPoint x="350" y="270" as="sourcePoint" />
            <mxPoint x="400" y="220" as="targetPoint" />
          </mxGeometry>
        </mxCell>
        <mxCell id="6BShPlHI175B7QSoKlye-55" value="" style="group" vertex="1" connectable="0" parent="1">
          <mxGeometry x="50" y="350" width="60" height="70" as="geometry" />
        </mxCell>
        <mxCell id="6BShPlHI175B7QSoKlye-66" style="edgeStyle=orthogonalEdgeStyle;rounded=0;orthogonalLoop=1;jettySize=auto;html=1;exitX=0.5;exitY=0;exitDx=0;exitDy=0;fillColor=#f8cecc;strokeColor=#b85450;" edge="1" parent="6BShPlHI175B7QSoKlye-55" source="6BShPlHI175B7QSoKlye-53">
          <mxGeometry relative="1" as="geometry">
            <mxPoint x="260" y="-190" as="targetPoint" />
          </mxGeometry>
        </mxCell>
        <mxCell id="6BShPlHI175B7QSoKlye-53" value="" style="ellipse;whiteSpace=wrap;html=1;aspect=fixed;strokeWidth=3;" vertex="1" parent="6BShPlHI175B7QSoKlye-55">
          <mxGeometry x="10" width="40" height="40" as="geometry" />
        </mxCell>
        <mxCell id="6BShPlHI175B7QSoKlye-54" value="Patient" style="text;html=1;align=center;verticalAlign=middle;whiteSpace=wrap;rounded=0;" vertex="1" parent="6BShPlHI175B7QSoKlye-55">
          <mxGeometry y="40" width="60" height="30" as="geometry" />
        </mxCell>
        <mxCell id="6BShPlHI175B7QSoKlye-56" value="" style="group" vertex="1" connectable="0" parent="1">
          <mxGeometry x="-220" y="80" width="60" height="70" as="geometry" />
        </mxCell>
        <mxCell id="6BShPlHI175B7QSoKlye-57" value="" style="ellipse;whiteSpace=wrap;html=1;aspect=fixed;strokeWidth=3;" vertex="1" parent="6BShPlHI175B7QSoKlye-56">
          <mxGeometry x="10" width="40" height="40" as="geometry" />
        </mxCell>
        <mxCell id="6BShPlHI175B7QSoKlye-58" value="Patient" style="text;html=1;align=center;verticalAlign=middle;whiteSpace=wrap;rounded=0;" vertex="1" parent="6BShPlHI175B7QSoKlye-56">
          <mxGeometry y="40" width="60" height="30" as="geometry" />
        </mxCell>
        <mxCell id="6BShPlHI175B7QSoKlye-59" value="" style="group" vertex="1" connectable="0" parent="1">
          <mxGeometry x="405" y="330" width="60" height="60" as="geometry" />
        </mxCell>
        <mxCell id="6BShPlHI175B7QSoKlye-25" value="" style="ellipse;whiteSpace=wrap;html=1;aspect=fixed;" vertex="1" parent="6BShPlHI175B7QSoKlye-59">
          <mxGeometry x="15" width="30" height="30" as="geometry" />
        </mxCell>
        <mxCell id="6BShPlHI175B7QSoKlye-26" value="Spesialization" style="text;html=1;align=center;verticalAlign=middle;whiteSpace=wrap;rounded=0;" vertex="1" parent="6BShPlHI175B7QSoKlye-59">
          <mxGeometry y="30" width="60" height="30" as="geometry" />
        </mxCell>
        <mxCell id="6BShPlHI175B7QSoKlye-73" value="" style="group" vertex="1" connectable="0" parent="1">
          <mxGeometry x="260" y="630" width="60" height="70" as="geometry" />
        </mxCell>
        <mxCell id="6BShPlHI175B7QSoKlye-74" value="" style="ellipse;whiteSpace=wrap;html=1;aspect=fixed;strokeWidth=3;" vertex="1" parent="6BShPlHI175B7QSoKlye-73">
          <mxGeometry x="10" width="40" height="40" as="geometry" />
        </mxCell>
        <mxCell id="6BShPlHI175B7QSoKlye-75" value="&lt;code data-end=&quot;478&quot; data-start=&quot;457&quot;&gt;MedicalHelpRequests&lt;/code&gt;" style="text;html=1;align=center;verticalAlign=middle;whiteSpace=wrap;rounded=0;" vertex="1" parent="6BShPlHI175B7QSoKlye-73">
          <mxGeometry y="40" width="60" height="30" as="geometry" />
        </mxCell>
        <mxCell id="6BShPlHI175B7QSoKlye-79" value="" style="group" vertex="1" connectable="0" parent="1">
          <mxGeometry x="-210" y="170" width="40" height="46" as="geometry" />
        </mxCell>
        <mxCell id="6BShPlHI175B7QSoKlye-77" value="" style="ellipse;whiteSpace=wrap;html=1;aspect=fixed;" vertex="1" parent="6BShPlHI175B7QSoKlye-79">
          <mxGeometry x="5" width="30" height="30" as="geometry" />
        </mxCell>
        <mxCell id="6BShPlHI175B7QSoKlye-78" value="Lastname" style="text;html=1;align=center;verticalAlign=middle;whiteSpace=wrap;rounded=0;" vertex="1" parent="6BShPlHI175B7QSoKlye-79">
          <mxGeometry y="39" width="40" height="7" as="geometry" />
        </mxCell>
        <mxCell id="6BShPlHI175B7QSoKlye-85" value="" style="group" vertex="1" connectable="0" parent="1">
          <mxGeometry x="110" y="550" width="40" height="50" as="geometry" />
        </mxCell>
        <mxCell id="6BShPlHI175B7QSoKlye-86" value="" style="ellipse;whiteSpace=wrap;html=1;aspect=fixed;" vertex="1" parent="6BShPlHI175B7QSoKlye-85">
          <mxGeometry x="5" width="30" height="30" as="geometry" />
        </mxCell>
        <mxCell id="6BShPlHI175B7QSoKlye-87" value="Patient_Id" style="text;html=1;align=center;verticalAlign=middle;whiteSpace=wrap;rounded=0;" vertex="1" parent="6BShPlHI175B7QSoKlye-85">
          <mxGeometry y="46" width="40" height="4" as="geometry" />
        </mxCell>
        <mxCell id="6BShPlHI175B7QSoKlye-90" value="" style="group" vertex="1" connectable="0" parent="1">
          <mxGeometry x="240" y="550" width="40" height="46" as="geometry" />
        </mxCell>
        <mxCell id="6BShPlHI175B7QSoKlye-91" value="" style="ellipse;whiteSpace=wrap;html=1;aspect=fixed;" vertex="1" parent="6BShPlHI175B7QSoKlye-90">
          <mxGeometry x="5" width="30" height="30" as="geometry" />
        </mxCell>
        <mxCell id="6BShPlHI175B7QSoKlye-92" value="&lt;font face=&quot;monospace&quot;&gt;Doctor_Id&lt;/font&gt;&lt;div&gt;&lt;font face=&quot;monospace&quot;&gt;&lt;br&gt;&lt;/font&gt;&lt;/div&gt;" style="text;html=1;align=center;verticalAlign=middle;whiteSpace=wrap;rounded=0;" vertex="1" parent="6BShPlHI175B7QSoKlye-90">
          <mxGeometry y="39" width="40" height="7" as="geometry" />
        </mxCell>
        <mxCell id="6BShPlHI175B7QSoKlye-95" value="" style="group" vertex="1" connectable="0" parent="1">
          <mxGeometry x="730" y="560" width="60" height="70" as="geometry" />
        </mxCell>
        <mxCell id="6BShPlHI175B7QSoKlye-96" value="" style="ellipse;whiteSpace=wrap;html=1;aspect=fixed;strokeWidth=3;" vertex="1" parent="6BShPlHI175B7QSoKlye-95">
          <mxGeometry x="10" width="40" height="40" as="geometry" />
        </mxCell>
        <mxCell id="6BShPlHI175B7QSoKlye-97" value="statuses" style="text;html=1;align=center;verticalAlign=middle;whiteSpace=wrap;rounded=0;" vertex="1" parent="6BShPlHI175B7QSoKlye-95">
          <mxGeometry y="40" width="60" height="30" as="geometry" />
        </mxCell>
        <mxCell id="6BShPlHI175B7QSoKlye-106" value="" style="group" vertex="1" connectable="0" parent="1">
          <mxGeometry x="590" y="490" width="40" height="46" as="geometry" />
        </mxCell>
        <mxCell id="6BShPlHI175B7QSoKlye-107" value="" style="ellipse;whiteSpace=wrap;html=1;aspect=fixed;" vertex="1" parent="6BShPlHI175B7QSoKlye-106">
          <mxGeometry x="5" width="30" height="30" as="geometry" />
        </mxCell>
        <mxCell id="6BShPlHI175B7QSoKlye-108" value="Complited" style="text;html=1;align=center;verticalAlign=middle;whiteSpace=wrap;rounded=0;" vertex="1" parent="6BShPlHI175B7QSoKlye-106">
          <mxGeometry y="39" width="40" height="7" as="geometry" />
        </mxCell>
        <mxCell id="6BShPlHI175B7QSoKlye-109" value="" style="group" vertex="1" connectable="0" parent="1">
          <mxGeometry x="680" y="460" width="40" height="46" as="geometry" />
        </mxCell>
        <mxCell id="6BShPlHI175B7QSoKlye-119" style="edgeStyle=orthogonalEdgeStyle;rounded=0;orthogonalLoop=1;jettySize=auto;html=1;exitX=0.5;exitY=1;exitDx=0;exitDy=0;" edge="1" parent="6BShPlHI175B7QSoKlye-109" source="6BShPlHI175B7QSoKlye-110">
          <mxGeometry relative="1" as="geometry">
            <mxPoint x="80" y="99.99999999999989" as="targetPoint" />
          </mxGeometry>
        </mxCell>
        <mxCell id="6BShPlHI175B7QSoKlye-110" value="" style="ellipse;whiteSpace=wrap;html=1;aspect=fixed;" vertex="1" parent="6BShPlHI175B7QSoKlye-109">
          <mxGeometry x="5" width="30" height="30" as="geometry" />
        </mxCell>
        <mxCell id="6BShPlHI175B7QSoKlye-111" value="Delegeted" style="text;html=1;align=center;verticalAlign=middle;whiteSpace=wrap;rounded=0;" vertex="1" parent="6BShPlHI175B7QSoKlye-109">
          <mxGeometry y="39" width="40" height="7" as="geometry" />
        </mxCell>
        <mxCell id="6BShPlHI175B7QSoKlye-112" value="" style="group" vertex="1" connectable="0" parent="1">
          <mxGeometry x="770" y="460" width="40" height="46" as="geometry" />
        </mxCell>
        <mxCell id="6BShPlHI175B7QSoKlye-120" style="edgeStyle=orthogonalEdgeStyle;rounded=0;orthogonalLoop=1;jettySize=auto;html=1;exitX=0.5;exitY=1;exitDx=0;exitDy=0;" edge="1" parent="6BShPlHI175B7QSoKlye-112" source="6BShPlHI175B7QSoKlye-113">
          <mxGeometry relative="1" as="geometry">
            <mxPoint x="-10" y="99.99999999999989" as="targetPoint" />
          </mxGeometry>
        </mxCell>
        <mxCell id="6BShPlHI175B7QSoKlye-113" value="" style="ellipse;whiteSpace=wrap;html=1;aspect=fixed;" vertex="1" parent="6BShPlHI175B7QSoKlye-112">
          <mxGeometry x="5" width="30" height="30" as="geometry" />
        </mxCell>
        <mxCell id="6BShPlHI175B7QSoKlye-114" value="Pending" style="text;html=1;align=center;verticalAlign=middle;whiteSpace=wrap;rounded=0;" vertex="1" parent="6BShPlHI175B7QSoKlye-112">
          <mxGeometry y="39" width="40" height="7" as="geometry" />
        </mxCell>
        <mxCell id="6BShPlHI175B7QSoKlye-115" value="" style="group" vertex="1" connectable="0" parent="1">
          <mxGeometry x="880" y="490" width="40" height="46" as="geometry" />
        </mxCell>
        <mxCell id="6BShPlHI175B7QSoKlye-116" value="" style="ellipse;whiteSpace=wrap;html=1;aspect=fixed;" vertex="1" parent="6BShPlHI175B7QSoKlye-115">
          <mxGeometry x="5" width="30" height="30" as="geometry" />
        </mxCell>
        <mxCell id="6BShPlHI175B7QSoKlye-117" value="InProgress" style="text;html=1;align=center;verticalAlign=middle;whiteSpace=wrap;rounded=0;" vertex="1" parent="6BShPlHI175B7QSoKlye-115">
          <mxGeometry y="39" width="40" height="7" as="geometry" />
        </mxCell>
        <mxCell id="6BShPlHI175B7QSoKlye-118" style="edgeStyle=orthogonalEdgeStyle;rounded=0;orthogonalLoop=1;jettySize=auto;html=1;exitX=1;exitY=1;exitDx=0;exitDy=0;" edge="1" parent="1" source="6BShPlHI175B7QSoKlye-107" target="6BShPlHI175B7QSoKlye-96">
          <mxGeometry relative="1" as="geometry">
            <Array as="points">
              <mxPoint x="621" y="540" />
              <mxPoint x="760" y="540" />
            </Array>
          </mxGeometry>
        </mxCell>
        <mxCell id="6BShPlHI175B7QSoKlye-121" style="edgeStyle=orthogonalEdgeStyle;rounded=0;orthogonalLoop=1;jettySize=auto;html=1;exitX=0;exitY=1;exitDx=0;exitDy=0;entryX=0.5;entryY=0;entryDx=0;entryDy=0;" edge="1" parent="1" source="6BShPlHI175B7QSoKlye-116" target="6BShPlHI175B7QSoKlye-96">
          <mxGeometry relative="1" as="geometry">
            <Array as="points">
              <mxPoint x="889" y="520" />
              <mxPoint x="760" y="520" />
            </Array>
          </mxGeometry>
        </mxCell>
        <mxCell id="6BShPlHI175B7QSoKlye-122" value="" style="group" vertex="1" connectable="0" parent="1">
          <mxGeometry x="350" y="550" width="40" height="46" as="geometry" />
        </mxCell>
        <mxCell id="6BShPlHI175B7QSoKlye-123" value="" style="ellipse;whiteSpace=wrap;html=1;aspect=fixed;" vertex="1" parent="6BShPlHI175B7QSoKlye-122">
          <mxGeometry x="5" width="30" height="30" as="geometry" />
        </mxCell>
        <mxCell id="6BShPlHI175B7QSoKlye-124" value="&lt;div&gt;&lt;font face=&quot;monospace&quot;&gt;Stutus_Id&lt;/font&gt;&lt;/div&gt;" style="text;html=1;align=center;verticalAlign=middle;whiteSpace=wrap;rounded=0;" vertex="1" parent="6BShPlHI175B7QSoKlye-122">
          <mxGeometry y="39" width="40" height="7" as="geometry" />
        </mxCell>
        <mxCell id="6BShPlHI175B7QSoKlye-126" style="edgeStyle=orthogonalEdgeStyle;rounded=0;orthogonalLoop=1;jettySize=auto;html=1;exitX=0.5;exitY=0;exitDx=0;exitDy=0;" edge="1" parent="1" source="6BShPlHI175B7QSoKlye-74" target="6BShPlHI175B7QSoKlye-92">
          <mxGeometry relative="1" as="geometry" />
        </mxCell>
        <mxCell id="6BShPlHI175B7QSoKlye-127" style="edgeStyle=orthogonalEdgeStyle;rounded=0;orthogonalLoop=1;jettySize=auto;html=1;exitX=0.5;exitY=0;exitDx=0;exitDy=0;entryX=0.5;entryY=1;entryDx=0;entryDy=0;" edge="1" parent="1" source="6BShPlHI175B7QSoKlye-74" target="6BShPlHI175B7QSoKlye-124">
          <mxGeometry relative="1" as="geometry" />
        </mxCell>
        <mxCell id="6BShPlHI175B7QSoKlye-128" style="edgeStyle=orthogonalEdgeStyle;rounded=0;orthogonalLoop=1;jettySize=auto;html=1;exitX=0;exitY=0.5;exitDx=0;exitDy=0;entryX=0.5;entryY=1;entryDx=0;entryDy=0;" edge="1" parent="1" source="6BShPlHI175B7QSoKlye-74" target="6BShPlHI175B7QSoKlye-86">
          <mxGeometry relative="1" as="geometry" />
        </mxCell>
        <mxCell id="6BShPlHI175B7QSoKlye-129" style="edgeStyle=orthogonalEdgeStyle;rounded=0;orthogonalLoop=1;jettySize=auto;html=1;exitX=1;exitY=0.5;exitDx=0;exitDy=0;fillColor=#f8cecc;strokeColor=#b85450;" edge="1" parent="1" source="6BShPlHI175B7QSoKlye-74" target="6BShPlHI175B7QSoKlye-97">
          <mxGeometry relative="1" as="geometry" />
        </mxCell>
      </root>
    </mxGraphModel>
  </diagram>
</mxfile>
